<svg 
 xmlns="http://www.w3.org/2000/svg"
 xmlns:xlink="http://www.w3.org/1999/xlink"
 width="1772px" height="1509px">
<path fill-rule="evenodd"  fill="rgb(255, 255, 255)"
 d="M1763.656,991.516 L1601.791,1468.235 C1592.480,1495.659 1565.278,1511.945 1537.622,1508.501 C1535.124,1508.818 1532.584,1509.000 1530.000,1509.000 L588.1000,1509.000 C555.863,1509.000 529.000,1482.137 529.000,1448.1000 L529.000,1445.1000 C529.000,1412.863 555.863,1385.1000 588.1000,1385.1000 L783.686,1385.1000 L916.726,994.176 C918.476,989.021 920.868,984.267 923.768,979.956 C928.432,970.714 939.531,952.018 961.000,932.000 C1002.472,893.332 1032.1000,897.1000 1032.1000,897.1000 L1032.966,898.049 C1033.643,898.026 1034.318,897.1000 1035.000,897.1000 L1701.418,897.1000 C1706.772,897.346 1712.266,897.430 1717.763,898.281 C1748.195,901.183 1772.000,926.808 1772.000,957.1000 L1772.000,960.1000 C1772.000,972.145 1768.951,982.574 1763.656,991.516 ZM1036.018,1021.000 C1035.546,1025.247 1034.626,1029.509 1033.195,1033.722 L913.583,1385.1000 L1499.816,1385.1000 L1623.749,1021.000 L1036.018,1021.000 ZM1252.1000,784.1000 C1252.1000,784.1000 1215.504,802.772 1181.000,777.1000 C1147.232,753.757 1165.1000,710.000 1165.1000,710.000 L1254.000,582.000 C1254.000,582.000 1268.843,548.100 1257.1000,509.000 C1245.213,462.890 1207.000,449.000 1207.000,449.000 L1008.165,373.950 C1001.575,402.440 990.992,429.402 977.043,454.219 L1077.000,523.1000 C1077.000,523.1000 1116.932,559.859 1086.000,606.1000 C1065.082,638.879 1015.000,629.000 1015.000,629.000 L896.491,547.104 C845.094,586.542 780.791,610.000 711.000,610.000 C672.229,610.000 635.154,602.755 601.040,589.562 L411.1000,727.1000 C411.1000,727.1000 367.157,746.505 336.1000,710.000 C308.808,675.873 342.000,630.1000 342.000,630.1000 L490.852,516.064 C468.450,492.701 449.721,465.788 435.615,436.242 L151.1000,606.1000 C151.1000,606.1000 119.562,630.183 122.000,674.1000 C124.714,724.886 154.1000,742.000 154.1000,742.000 L368.000,869.000 C368.000,869.000 444.357,915.112 486.000,979.000 C524.753,1038.453 529.000,1115.1000 529.000,1115.1000 L529.000,1250.000 C529.000,1250.000 518.305,1304.902 470.000,1304.1000 C411.613,1305.119 406.000,1253.1000 406.000,1253.1000 L406.000,1121.000 C406.000,1121.000 402.708,1075.305 377.000,1036.1000 C352.751,1000.869 305.1000,971.1000 305.1000,971.1000 L79.1000,836.1000 C79.1000,836.1000 3.997,785.052 1.000,691.000 C-3.138,561.128 81.1000,506.1000 81.1000,506.1000 L406.101,312.922 C406.034,310.289 406.000,307.649 406.000,305.000 C406.000,136.553 542.553,0.000 711.000,0.000 C858.472,0.000 981.496,104.665 1009.848,243.763 L1246.000,334.000 C1246.000,334.000 1347.925,366.368 1375.1000,477.1000 C1404.716,592.179 1339.1000,670.1000 1339.1000,670.1000 L1252.1000,784.1000 ZM710.998,122.026 C609.215,122.026 526.703,204.538 526.703,306.322 C526.703,408.105 609.215,490.617 710.998,490.617 C812.782,490.617 895.293,408.105 895.293,306.322 C895.293,204.538 812.782,122.026 710.998,122.026 Z"/>
</svg>